<?xml version="1.0" encoding="utf-8"?>
<!-- Generator: Adobe Illustrator 25.2.0, SVG Export Plug-In . SVG Version: 6.00 Build 0)  -->
<svg version="1.1" id="Layer_1" xmlns="http://www.w3.org/2000/svg" xmlns:xlink="http://www.w3.org/1999/xlink" x="0px" y="0px"
	 viewBox="0 0 277.7 67.2" style="enable-background:new 0 0 277.7 67.2;" xml:space="preserve">
<style type="text/css">
	.st0{fill:#FFFFFF;}
</style>
<path class="st0" d="M33,1C15.5,1.3,1.2,15.7,1,33.3c-0.1,11.8,6,22.1,15.3,28c2.2,1.4,4.5,2.5,7,3.3c0,0,0,0,0,0V57c0,0,0,0,0,0
	v-9.5c3,2.2,6.6,3.5,10.6,3.4c9.6-0.1,17.2-7.8,17.1-17.4c0-9.6-7.8-17.4-17.4-17.4c-9.4,0-17,7.4-17.4,16.7h0v19.5
	c-5.2-4.8-8.4-11.8-8.2-19.5C8.4,19.1,19.9,7.9,33.8,8C47.9,8,59.3,19.5,59.3,33.6c0,14.2-11.5,25.6-25.6,25.6
	c-1.1,0-2.2-0.1-3.3-0.2v7.1c1.3,0.1,2.7,0.2,4.1,0.2c17.5-0.4,31.6-14.7,31.9-32.1C66.6,15.6,51.5,0.6,33,1z M33.7,23.3
	c5.7,0,10.3,4.6,10.3,10.3c0,5.7-4.6,10.3-10.3,10.3c-5.7,0-10.3-4.6-10.3-10.3C23.4,27.9,28,23.3,33.7,23.3z M99.1,44.1
	c-2.8,2.7-6.8,4.1-11,4.1s-8.1-1.4-11-4.1c-3-2.8-4.4-6.7-4.4-10.4c0-3.7,1.4-7.6,4.4-10.4c2.8-2.7,6.8-4.1,11-4.1s8.1,1.4,11,4.1
	c3,2.8,4.4,6.7,4.4,10.4C103.5,37.4,102.1,41.3,99.1,44.1z M82.6,28.4c-1.5,1.5-2.2,3.5-2.2,5.5c0,2.5,1.2,4.2,2.2,5.2
	c1.3,1.3,3.2,2.2,5.6,2.2c2.5,0,4.3-0.9,5.6-2.2c1.3-1.3,2.2-3.2,2.2-5.3c0-2.2-1-4.1-2.2-5.3c-1.5-1.5-3.7-2.2-5.6-2.2
	C86.2,26.2,84.1,26.9,82.6,28.4z M114.3,57.1h-6.7V29h6.7v2c1.2-1.5,3-2.7,5.7-2.7c2.9,0,5.1,1.2,6.6,2.7c1.5,1.5,2.8,4,2.8,7.2
	c0,3.1-1.2,5.6-3,7.4c-2.1,2-4.5,2.6-6.4,2.6c-1.2,0-3.7-0.2-5.8-2.4V57.1z M115.4,35.3c-0.8,0.8-1.3,2-1.3,3.1c0,1.1,0.6,2.2,1.3,3
	c0.8,0.8,1.9,1.2,3,1.2c1.2,0,2.2-0.5,3-1.2c0.7-0.7,1.3-1.8,1.3-3c0-1-0.5-2.2-1.3-3.1c-0.7-0.8-1.8-1.2-3-1.2
	C117.3,34,116.2,34.5,115.4,35.3z M153.2,39.5h-13.9c0,1,0.4,2.3,1.2,3.1c0.4,0.4,1.2,0.9,2.7,0.9c0.2,0,1.3,0,2.2-0.5
	c0.4-0.2,0.9-0.7,1.2-1.2h6.4c-0.3,1-0.9,2.5-2.2,3.8c-1.4,1.3-3.5,2.6-7.6,2.6c-2.5,0-5.4-0.5-7.7-2.8c-1.2-1.2-2.7-3.5-2.7-7
	c0-3.1,1.2-5.6,2.8-7.2c1.5-1.5,4-2.7,7.6-2.7c2.2,0,5,0.5,7.2,2.5c2.6,2.5,3,5.7,3,7.8V39.5z M147.1,35.7c-0.2-0.7-0.6-1.5-1.1-2
	c-0.9-0.9-2.1-1-2.7-1c-1.1,0-2,0.3-2.7,1c-0.5,0.5-0.9,1.2-1,2H147.1z M156.6,29h6.7v2.3c1.8-2.4,4.3-2.7,5.9-2.7
	c1.9,0,4,0.5,5.5,2c1.6,1.6,1.7,3.2,1.7,5.2v11.8h-6.7v-9.4c0-1.1,0-2.7-0.8-3.6c-0.6-0.7-1.5-0.8-2.1-0.8c-1,0-1.9,0.4-2.5,0.9
	c-0.7,0.6-1.1,1.8-1.1,3v10h-6.7V29z M187.8,38.4v9.2h-7.2V19.8h11.5c2.4,0,4.9,0.5,7,2.5c2.2,2.1,2.6,4.4,2.6,6.7
	c0,2.2-0.3,4.8-2.5,6.9c-2.2,2.1-4.7,2.4-6.9,2.4H187.8z M187.8,32.6h2.4c0.7,0,2.2-0.1,3-0.9c0.9-0.7,0.9-1.9,0.9-2.5
	c0-0.7-0.1-1.7-0.8-2.5c-0.8-0.9-2.2-1-3.1-1h-2.5V32.6z M218.4,29h6.7v18.6h-6.7v-2c-1.5,2.1-4,2.7-5.8,2.7c-2,0-4.5-0.6-6.7-3
	c-1.8-1.9-2.7-4-2.7-6.8c0-3.5,1.4-6,2.9-7.5c1.6-1.6,4-2.6,6.7-2.6c3,0,4.8,1.5,5.6,2.4V29z M211.4,35.2c-0.9,0.9-1.3,2.1-1.3,3
	c0,1.1,0.5,2.2,1.3,3c0.7,0.7,1.9,1.2,3,1.2c1.1,0,2.2-0.5,3-1.3c0.6-0.6,1.2-1.5,1.2-3c0-0.9-0.2-2-1.3-3c-0.6-0.6-1.6-1.2-3-1.2
	C213.4,34,212.3,34.3,211.4,35.2z M237.7,45.1l-9-16.1h7.7l5,9.5l4.8-9.5h7.6L239,57.1h-7.5L237.7,45.1z M276.4,47.6h-6.7v-2
	c-1.9,2.4-4.3,2.7-5.6,2.7c-2.7,0-4.8-0.9-6.5-2.6c-1.9-1.8-3-4.5-3-7.4c0-3.2,1.3-5.7,3-7.4c1.8-1.7,4.3-2.5,6.6-2.5
	c2.5,0,4.3,1.1,5.5,2.4V17.3h6.7V47.6z M268.5,41.5c0.9-0.8,1.4-2,1.4-3.2c0-1-0.6-2.3-1.2-3c-0.7-0.8-1.8-1.2-3-1.2
	c-1.4,0-2.4,0.6-3,1.2c-0.7,0.7-1.3,1.9-1.3,3.2c0,1,0.4,2,1.3,2.9c0.9,0.9,2,1.2,3,1.2C266.8,42.6,267.8,42.1,268.5,41.5z"/>
</svg>
